# xmcd
#
# Track frame offsets: 
#        183
#        7195
#        31398
#        46755
#        62013
#        76713
#        98213
#        116153
#        134583
#        150965
#        166623
#        188900
#
# Disc length: 2824 seconds
#
# Revision: 1
# Processed by: cddbd v1.5.2PL0 Copyright (c) Steve Scherf et al.
# Submitted via: ExactAudioCopy v0.99pb3
#
DISCID=8d0b060c
DTITLE=Will Tura - Tura In Symfonie
DYEAR=1900
DGENRE=Easy Listening
TTITLE0=Let's Go Will
TTITLE1=Nieuwe Wegen
TTITLE2=Waar een will is
TTITLE3=Iemand daarboven houdt van mij
TTITLE4=De Fanfare
TTITLE5=Bella Afrika (Khadja Nin)
TTITLE6=De noorderwind
TTITLE7=Kerstmis met jou
TTITLE8=Mooi, 't leven is mooi
TTITLE9=Eenzaamzonder jou
TTITLE10=My Way
TTITLE11=Alles
EXTD=
EXTT0=
EXTT1=
EXTT2=
EXTT3=
EXTT4=
EXTT5=
EXTT6=
EXTT7=
EXTT8=
EXTT9=
EXTT10=
EXTT11=
PLAYORDER=
